<?xml version="1.0" encoding="UTF-8"?>
<svg width="24" height="24" viewBox="0 0 24 24" fill="none" xmlns="http://www.w3.org/2000/svg">
  <path fill-rule="evenodd" clip-rule="evenodd" d="M10 4C6.68629 4 4 6.68629 4 10C4 13.3137 6.68629 16 10 16C11.5367 16 12.9385 15.3923 14.0126 14.395L18.2929 18.7071C18.6834 19.0976 19.3166 19.0976 19.7071 18.7071C20.0976 18.3166 20.0976 17.6834 19.7071 17.2929L15.4268 13.0195C16.4151 11.9469 17 10.5523 17 9C17 5.68629 14.3137 3 11 3C10.6685 3 10.3419 3.02307 10.0222 3.06736C10.0074 3.04837 10 3.02917 10 3V4ZM10 14C13.3137 14 16 11.3137 16 8C16 4.68629 13.3137 2 10 2C6.68629 2 4 4.68629 4 8C4 11.3137 6.68629 14 10 14Z" fill="white"/>
</svg> 