<?xml version="1.0" encoding="UTF-8"?>
<svg width="24" height="24" viewBox="0 0 24 24" fill="none" xmlns="http://www.w3.org/2000/svg">
  <path fill-rule="evenodd" clip-rule="evenodd" d="M3 5C3 3.89543 3.89543 3 5 3H19C20.1046 3 21 3.89543 21 5V19C21 20.1046 20.1046 21 19 21H5C3.89543 21 3 20.1046 3 19V5ZM5 5V19H19V5H5Z" fill="white"/>
  <path d="M10 11C10 10.4477 10.4477 10 11 10H13C13.5523 10 14 10.4477 14 11V13C14 13.5523 13.5523 14 13 14H11C10.4477 14 10 13.5523 10 13V11Z" fill="white"/>
  <path d="M7 7H9V9H7V7Z" fill="white"/>
  <path d="M15 7H17V9H15V7Z" fill="white"/>
  <path d="M15 15H17V17H15V15Z" fill="white"/>
  <path d="M7 15H9V17H7V15Z" fill="white"/>
</svg> 