<?xml version="1.0" encoding="UTF-8"?>
<svg width="24" height="24" viewBox="0 0 24 24" fill="none" xmlns="http://www.w3.org/2000/svg">
  <path fill-rule="evenodd" clip-rule="evenodd" d="M12 8C9.79086 8 8 9.79086 8 12C8 14.2091 9.79086 16 12 16C14.2091 16 16 14.2091 16 12C16 9.79086 14.2091 8 12 8ZM10 12C10 10.8954 10.8954 10 12 10C13.1046 10 14 10.8954 14 12C14 13.1046 13.1046 14 12 14C10.8954 14 10 13.1046 10 12Z" fill="white"/>
  <path d="M13.7654 1.89443L14.3588 2.18496C15.19 2.61659 15.884 3.31063 16.3156 4.1418L16.6062 4.73517C16.7369 4.99695 17.0022 5.16589 17.2959 5.16589H18.5403C19.8010 5.16589 20.8921 6.25521 20.8921 7.51521V8.77102C20.8921 9.05697 21.0586 9.31597 21.3183 9.44597L21.9117 9.73649C22.7429 10.1681 23.437 10.8622 23.8686 11.6933L24.1592 12.2867C24.2899 12.5485 24.2899 12.8553 24.1592 13.1171L23.8686 13.7104C23.437 14.5416 22.7429 15.2356 21.9117 15.6673L21.3183 15.9578C21.0565 16.0885 20.8876 16.3538 20.8876 16.6476V17.8884C20.8876 19.1491 19.7983 20.2398 18.5383 20.2398H17.2825C16.9965 20.2398 16.7375 20.4062 16.6075 20.666L16.3156 21.2619C15.884 22.0931 15.19 22.7871 14.3588 23.2188L13.7654 23.5093C13.5036 23.64 13.1968 23.64 12.935 23.5093L12.3417 23.2188C11.5105 22.7871 10.8165 22.0931 10.3848 21.2619L10.0943 20.6686C9.96359 20.4068 9.69826 20.2378 9.40453 20.2378H8.16007C6.89938 20.2378 5.80833 19.1484 5.80833 17.8864V16.6342C5.80833 16.3482 5.64182 16.0893 5.38205 15.9593L4.78869 15.6687C3.95751 15.2371 3.26347 14.5431 2.83184 13.7119L2.54132 13.1185C2.41063 12.8567 2.41063 12.5499 2.54132 12.2881L2.83184 11.6948C3.26347 10.8636 3.95751 10.1696 4.78869 9.73794L5.38205 9.4474C5.64383 9.31672 5.81277 9.05139 5.81277 8.75766V7.51321C5.81277 6.25252 6.90209 5.16147 8.16209 5.16147H9.40654C9.69249 5.16147 9.95148 4.99495 10.0815 4.73519L10.3734 4.13934C10.8050 3.30816 11.4991 2.61412 12.3302 2.18249L12.9236 1.89196C13.1854 1.76128 13.4922 1.76128 13.754 1.89196L13.7654 1.89443ZM12.3502 4.13685C11.9186 4.35895 11.5661 4.71141 11.344 5.14301L11.0535 5.73638C10.6614 6.5212 9.87683 7.04147 8.99725 7.04147H7.7528C7.38996 7.04147 7.09351 7.33793 7.09351 7.70077V8.94522C7.09351 9.82481 6.57323 10.6094 5.78842 11.0015L5.19505 11.292C4.76345 11.5141 4.41099 11.8666 4.18889 12.2982L3.89837 12.8915C3.67627 13.3231 3.67627 13.8227 3.89837 14.2542L4.18889 14.8476C4.41099 15.2792 4.76345 15.6317 5.19505 15.8538L5.78842 16.1443C6.57323 16.5364 7.09351 17.321 7.09351 18.2006H7.09277V18.2011C7.09277 18.564 7.38923 18.8604 7.75207 18.8604H8.99652C9.87611 18.8604 10.6607 19.3807 11.0528 20.1655L11.3433 20.7589C11.5654 21.1905 11.9179 21.5429 12.3495 21.7651L12.9429 22.0556C13.3744 22.2777 13.874 22.2777 14.3056 22.0556L14.8989 21.7651C15.3305 21.5429 15.683 21.1905 15.9051 20.7589L16.1956 20.1655C16.5877 19.3807 17.3723 18.8604 18.2519 18.8604H19.4963C19.8592 18.8604 20.1556 18.564 20.1556 18.2011V16.9567C20.1556 16.0771 20.6759 15.2925 21.4607 14.9004L22.0541 14.6099C22.4857 14.3878 22.8381 14.0353 23.0603 13.6037L23.3508 13.0103C23.5729 12.5787 23.5729 12.0791 23.3508 11.6476L23.0603 11.0542C22.8381 10.6226 22.4857 10.2701 22.0541 10.048L21.4607 9.75751C20.6759 9.3654 20.1556 8.58079 20.1556 7.7012V6.45675C20.1556 6.09391 19.8592 5.79745 19.4963 5.79745H18.2519C17.3723 5.79745 16.5877 5.27718 16.1956 4.49236L15.9051 3.899C15.683 3.4674 15.3305 3.11494 14.8989 2.89283L14.3056 2.60231C13.874 2.38021 13.3744 2.38021 12.9429 2.60231L12.3502 2.89209V4.13685Z" fill="white"/>
</svg> 